<svg xmlns="http://www.w3.org/2000/svg" version="1.1" xmlnsXlink="http://www.w3.org/1999/xlink" xmlnsSvgjs="http://svgjs.dev/svgjs" width="2000" height="287" viewBox="0 0 2000 287"><g transform="matrix(1,0,0,1,-1.2121212121212466,-1.0525847621793218)"><svg viewBox="0 0 396 57" data-background-color="#ffffff" preserveAspectRatio="xMidYMid meet" height="287" width="2000" xmlns="http://www.w3.org/2000/svg" xmlnsXlink="http://www.w3.org/1999/xlink"><g id="tight-bounds" transform="matrix(1,0,0,1,0.2400000000000091,0.20904993534571759)"><svg viewBox="0 0 395.52 56.581900129308536" height="56.581900129308536" width="395.52"><g><svg viewBox="0 0 508.6045430363817 72.7594343127962" height="56.581900129308536" width="395.52"><g><rect width="6.528876491606143" height="72.7594343127962" x="89.46436682852911" y="0" fill="#3b82f6" opacity="1" stroke-width="0" stroke="transparent" fill-opacity="1" class="rect-qz-0" data-fill-palette-color="primary" rx="1%" id="qz-0" data-palette-color="#3b82f6"></rect></g><g transform="matrix(1,0,0,1,113.08454303638169,0.18099361769351674)"><svg viewBox="0 0 395.52 72.39744707740917" height="72.39744707740917" width="395.52"><g id="textblocktransform"><svg viewBox="0 0 395.52 72.39744707740917" height="72.39744707740917" width="395.52" id="textblock"><g><svg viewBox="0 0 395.52 72.39744707740917" height="72.39744707740917" width="395.52"><g transform="matrix(1,0,0,1,0,0)"><svg width="395.52" viewBox="-0.42 -41.94 231.79999999999998 42.43" height="72.39744707740917" data-palette-color="#3b82f6"><path d="M-0.42-1.25L0.78-4.44Q0.78-4.44 1.34-4.17L1.34-4.17Q4-2.91 6.98-2.91L6.98-2.91Q9.57-2.91 10.64-4.52L10.64-4.52Q11.67-6.08 11.67-9.86L11.67-9.86 11.67-37.35 15.77-37.35 15.77-12.6Q15.77-8.03 15.39-6.15 15.01-4.27 14.44-3.13 13.87-1.98 12.89-1.17L12.89-1.17Q10.89 0.49 6.98 0.49L6.98 0.49Q3.61 0.49 0.66-0.73L0.66-0.73Q-0.05-1.03-0.42-1.25L-0.42-1.25ZM25.41-14.45L25.41-14.45Q25.41-20 25.97-22.19 26.54-24.39 27.35-25.67 28.17-26.95 29.56-27.81L29.56-27.81Q32.35-29.54 37.79-29.54L37.79-29.54Q45.65-29.54 47.9-25.66L47.9-25.66Q49.24-23.32 49.44-19.04L49.44-19.04Q49.51-17.02 49.51-14.58 49.51-12.13 49.35-10.02 49.19-7.91 48.73-6.23 48.26-4.54 47.43-3.28 46.6-2.03 45.24-1.17L45.24-1.17Q42.55 0.49 37.4 0.49L37.4 0.49Q29.68 0.49 27.27-3.32L27.27-3.32Q25.78-5.69 25.53-9.96L25.53-9.96Q25.41-12.01 25.41-14.45ZM32.05-4.27Q32.93-3.61 34.26-3.28 35.59-2.95 37.9-2.95 40.21-2.95 41.78-3.61 43.36-4.27 44.15-5.73 44.94-7.18 45.15-9.5 45.36-11.82 45.36-14.89 45.36-17.97 45.18-20.02 44.99-22.07 44.26-23.41L44.26-23.41Q42.8-26.05 37.74-26.05L37.74-26.05Q32.39-26.05 30.78-23.41L30.78-23.41Q29.98-22.07 29.76-20 29.54-17.92 29.54-15.48 29.54-13.04 29.6-11.34 29.66-9.64 29.92-8.29 30.17-6.93 30.67-5.93 31.17-4.93 32.05-4.27ZM63.35-2.71L63.35-2.71 62.84 0 59.39 0 59.39-41.55 63.45-41.94 63.45-26.27Q68.5-29.54 73.21-29.54L73.21-29.54Q79.76-29.54 81.51-25.51L81.51-25.51Q82.61-22.97 82.76-18.38L82.76-18.38Q82.81-16.16 82.81-13.5L82.81-13.5 82.81-11.55Q82.81-8.2 82.38-6.52 81.95-4.83 81.29-3.63 80.63-2.42 79.49-1.51L79.49-1.51Q77 0.49 72.36 0.49 67.72 0.49 63.35-2.71ZM63.45-23.05L63.45-5.91Q68.62-3.1 72.16-3.1L72.16-3.1 72.46-3.1Q76.63-3.1 77.83-5.42L77.83-5.42Q78.46-6.59 78.61-8.47 78.75-10.35 78.75-12.99L78.75-12.99 78.75-16.5Q78.75-21.95 77.51-23.83L77.51-23.83Q76.29-25.71 72.87-25.71L72.87-25.71 72.26-25.71Q69.21-25.71 65.18-23.9L65.18-23.9Q64.13-23.44 63.45-23.05L63.45-23.05ZM89.47-2.47L91.08-5.88Q96.62-2.95 101.92-2.95L101.92-2.95Q108.07-2.95 109.12-6.88L109.12-6.88Q109.47-8.18 109.47-9.86L109.47-9.86 109.47-10.82Q109.47-12.52 109.22-13.57 108.98-14.62 108.2-15.28L108.2-15.28Q106.93-16.38 102.19-17.11L102.19-17.11Q97.97-17.77 96.35-18.36 94.74-18.95 93.71-19.64 92.67-20.34 91.94-21.39L91.94-21.39Q90.42-23.58 90.42-27.47L90.42-27.47 90.42-27.71Q90.42-35.77 97.11-37.35L97.11-37.35Q99.24-37.84 101.92-37.84L101.92-37.84 102.24-37.84Q108.51-37.84 112.49-36.04L112.49-36.04 111.22-32.3Q106.41-34.38 102.36-34.38L102.36-34.38 102.14-34.38Q97.67-34.38 95.99-32.69L95.99-32.69Q94.57-31.27 94.57-27.78L94.57-27.78 94.57-27.69Q94.57-23.71 96.77-22.46L96.77-22.46Q98.26-21.66 102.1-21.04 105.95-20.43 107.83-20.01 109.71-19.58 111.03-18.6L111.03-18.6Q113.76-16.55 113.76-10.82L113.76-10.82 113.76-10.5Q113.76-1.73 106.71-0.05L106.71-0.05Q104.53 0.49 102.6 0.49 100.68 0.49 99.1 0.35 97.53 0.22 95.89-0.12L95.89-0.12Q92.06-0.9 89.47-2.47L89.47-2.47ZM143.54-5.03L144.74-1.54Q139.69 0.49 133.58 0.49L133.58 0.49Q130.04 0.49 127.58-0.24L127.58-0.24Q123.65-1.37 122.35-4.88L122.35-4.88Q121.16-8.18 121.16-14.65L121.16-14.65 121.16-15.89Q121.16-23.63 124.38-26.76L124.38-26.76Q127.28-29.54 134.07-29.54L134.07-29.54Q140.69-29.54 143.11-26.27L143.11-26.27Q144.28-24.68 144.66-22.42 145.03-20.17 145.03-18.12L145.03-18.12Q145.03-14.92 144.89-13.16L144.89-13.16Q141.45-13.01 138.71-13.01L138.71-13.01Q138.71-13.01 134.78-13.01L134.78-13.01Q128.63-13.01 125.31-13.55L125.31-13.55Q125.31-7.93 126.72-5.71L126.72-5.71Q128.46-3 133.63-3 138.81-3 143.54-5.03L143.54-5.03ZM125.31-16.41L140.91-16.41 140.91-18.75Q140.91-22.58 139.42-24.22L139.42-24.22Q137.76-26.05 133.68-26.05L133.68-26.05Q128.8-26.05 127.02-23.93L127.02-23.93Q125.31-21.9 125.31-16.41L125.31-16.41ZM176.84-5.03L178.04-1.54Q172.99 0.49 166.88 0.49L166.88 0.49Q163.34 0.49 160.88-0.24L160.88-0.24Q156.95-1.37 155.65-4.88L155.65-4.88Q154.46-8.18 154.46-14.65L154.46-14.65 154.46-15.89Q154.46-23.63 157.68-26.76L157.68-26.76Q160.58-29.54 167.37-29.54L167.37-29.54Q173.99-29.54 176.4-26.27L176.4-26.27Q177.58-24.68 177.95-22.42 178.33-20.17 178.33-18.12L178.33-18.12Q178.33-14.92 178.19-13.16L178.19-13.16Q174.74-13.01 172.01-13.01L172.01-13.01Q172.01-13.01 168.08-13.01L168.08-13.01Q161.93-13.01 158.61-13.55L158.61-13.55Q158.61-7.93 160.02-5.71L160.02-5.71Q161.76-3 166.93-3 172.11-3 176.84-5.03L176.84-5.03ZM158.61-16.41L174.21-16.41 174.21-18.75Q174.21-22.58 172.72-24.22L172.72-24.22Q171.06-26.05 166.98-26.05L166.98-26.05Q162.1-26.05 160.31-23.93L160.31-23.93Q158.61-21.9 158.61-16.41L158.61-16.41ZM188.51 0L188.51-41.46 192.56-41.89 192.56-16.7Q193.54-16.5 194.92-17.7 196.3-18.9 197.37-19.98 198.45-21.07 199.59-22.36L199.59-22.36Q203.72-27.12 205.01-29.05L205.01-29.05 209.85-29.05Q209.31-27.83 207.38-25.59L207.38-25.59 204.11-21.9Q201.45-19.04 199.85-17.68 198.25-16.31 197.74-16.11L197.74-16.11 197.74-15.87 198.47-15.5Q200.06-14.75 202.62-11.47L202.62-11.47 211.73 0 206.6 0 200.4-8.13Q196.1-13.75 193.83-13.94L193.83-13.94 193.3-13.99Q193.05-14.01 192.86-14 192.66-13.99 192.56-13.99L192.56-13.99 192.56 0 188.51 0ZM228.11-25.51L228.11-25.51Q224.98-25.51 221.74-22.39L221.74-22.39 221.74 0 217.68 0 217.68-29.05 221.25-29.05 221.64-25.2Q222.79-26.98 224.12-27.98 225.45-28.98 226.3-29.2L226.3-29.2Q227.52-29.54 228.62-29.54 229.72-29.54 231.38-29.1L231.38-29.1 231.01-25.22Q229.77-25.51 228.11-25.51Z" opacity="1" transform="matrix(1,0,0,1,0,0)" fill="#3b82f6" class="wordmark-text-0" data-fill-palette-color="primary" id="text-0"></path></svg></g></svg></g></svg></g></svg></g><g transform="matrix(1,0,0,1,0,0.18099361769351674)"><svg viewBox="0 0 72.37306711228267 72.39744707740917" height="72.39744707740917" width="72.37306711228267"><g><svg xmlnsDc="http://purl.org/dc/elements/1.1/" xmlnsCc="http://creativecommons.org/ns#" xmlnsRdf="http://www.w3.org/1999/02/22-rdf-syntax-ns#" xmlnsSvg="http://www.w3.org/2000/svg" xmlns="http://www.w3.org/2000/svg" xmlnsSodipodi="http://sodipodi.sourceforge.net/DTD/sodipodi-0.dtd" xmlnsInkscape="http://www.inkscape.org/namespaces/inkscape" version="1.1" x="0" y="0" viewBox="3.0097656 3 57.9804684 58" style="enable-background:new 0 0 64 64;" xml:space="preserve" height="72.39744707740917" width="72.37306711228267" class="icon-icon-0" data-fill-palette-color="accent" id="icon-0"><path d="M32.01 3C28.701 3 26.01 5.691 26.01 9 26.01 9.224 26.023 9.444 26.047 9.662 26.083 9.99 26.154 10.311 26.244 10.625 26.265 10.698 26.282 10.772 26.305 10.844 26.387 11.093 26.489 11.334 26.604 11.57 26.67 11.709 26.739 11.846 26.816 11.979 26.863 12.059 26.917 12.135 26.967 12.213 27.146 12.494 27.344 12.758 27.566 13.004 27.576 13.015 27.586 13.024 27.596 13.035 28.697 14.239 30.264 15 32.01 15 33.266 15 34.431 14.61 35.396 13.947 35.398 13.945 35.401 13.946 35.404 13.945 35.439 13.921 35.471 13.892 35.506 13.867 35.645 13.767 35.78 13.664 35.91 13.553 35.972 13.499 36.032 13.441 36.092 13.385 36.196 13.288 36.298 13.186 36.395 13.082 36.451 13.021 36.507 12.962 36.561 12.9 36.667 12.776 36.767 12.647 36.863 12.514 36.895 12.469 36.932 12.428 36.963 12.383 37.088 12.201 37.201 12.011 37.305 11.816 37.326 11.777 37.341 11.736 37.361 11.697 37.442 11.537 37.518 11.373 37.584 11.205 37.608 11.145 37.628 11.084 37.65 11.023 37.705 10.871 37.755 10.717 37.797 10.561 37.815 10.494 37.832 10.427 37.848 10.359 37.885 10.198 37.915 10.036 37.939 9.871 37.948 9.809 37.96 9.749 37.967 9.686 37.994 9.461 38.01 9.232 38.01 9 38.01 5.691 35.319 3 32.01 3zM32.01 4C34.767 4 37.01 6.243 37.01 9 37.01 9.315 36.974 9.621 36.918 9.92 36.899 10.023 36.867 10.124 36.842 10.225 36.793 10.419 36.735 10.609 36.664 10.793 36.622 10.901 36.576 11.005 36.527 11.109 36.445 11.283 36.354 11.451 36.254 11.613 36.197 11.706 36.141 11.8 36.078 11.889 36.051 11.926 36.018 11.957 35.99 11.994 35.988 10.652 35.297 9.402 34.188 8.67 34.373 8.32 34.49 7.924 34.49 7.5 34.49 6.122 33.368 5 31.99 5 30.612 5 29.49 6.122 29.49 7.5 29.49 7.593 29.496 7.683 29.506 7.775 29.542 8.1 29.639 8.405 29.785 8.678 28.694 9.403 28.008 10.628 27.99 11.949 27.774 11.659 27.601 11.345 27.453 11.018 27.401 10.9 27.35 10.781 27.307 10.658 27.269 10.552 27.233 10.446 27.203 10.338 27.133 10.084 27.073 9.825 27.043 9.555 27.022 9.372 27.01 9.187 27.01 9 27.01 6.243 29.253 4 32.01 4zM31.99 6C32.817 6 33.49 6.673 33.49 7.5 33.49 7.885 33.34 8.234 33.1 8.5L33.098 8.502C32.762 8.873 32.269 9.023 31.801 8.965 31.734 8.956 31.669 8.947 31.605 8.93 31.51 8.905 31.417 8.871 31.328 8.828 31.239 8.784 31.154 8.734 31.076 8.674 31.023 8.634 30.975 8.59 30.928 8.541 30.701 8.309 30.536 8.013 30.498 7.668 30.493 7.613 30.49 7.557 30.49 7.5 30.49 6.673 31.163 6 31.99 6zM9.01 7C5.701 7 3.01 9.691 3.01 13 3.01 13.224 3.023 13.444 3.047 13.662 3.083 13.989 3.154 14.309 3.244 14.623 3.265 14.696 3.282 14.772 3.305 14.844 3.387 15.093 3.489 15.334 3.604 15.57 3.67 15.709 3.739 15.844 3.816 15.977 3.863 16.057 3.917 16.133 3.967 16.211 4.146 16.492 4.344 16.756 4.566 17.002 4.576 17.013 4.586 17.022 4.596 17.033 5.697 18.238 7.264 19 9.01 19 10.266 19 11.431 18.61 12.396 17.947 12.398 17.945 12.401 17.946 12.404 17.945 12.439 17.921 12.471 17.892 12.506 17.867 12.645 17.767 12.78 17.664 12.91 17.553 12.973 17.499 13.034 17.442 13.094 17.385 13.198 17.288 13.298 17.186 13.395 17.082 13.451 17.021 13.508 16.962 13.563 16.9 13.668 16.776 13.767 16.647 13.863 16.514 13.895 16.469 13.932 16.428 13.963 16.383 14.088 16.201 14.203 16.011 14.307 15.816 14.328 15.777 14.343 15.736 14.363 15.697 14.444 15.537 14.52 15.373 14.586 15.205 14.61 15.145 14.63 15.084 14.652 15.023 14.707 14.871 14.755 14.717 14.797 14.561 14.815 14.494 14.834 14.427 14.85 14.359 14.887 14.198 14.915 14.036 14.939 13.871 14.948 13.809 14.962 13.749 14.969 13.686 14.995 13.461 15.01 13.232 15.01 13 15.01 9.691 12.319 7 9.01 7zM54.99 7C51.681 7 48.99 9.691 48.99 13 48.99 13.224 49.001 13.444 49.025 13.662 49.061 13.989 49.133 14.309 49.223 14.623 49.244 14.697 49.261 14.772 49.285 14.846 49.367 15.095 49.468 15.335 49.582 15.57 49.648 15.71 49.719 15.846 49.795 15.979 49.84 16.057 49.892 16.131 49.941 16.207 50.121 16.49 50.322 16.757 50.545 17.004 50.555 17.015 50.564 17.024 50.574 17.035 51.675 18.239 53.243 19 54.99 19 56.246 19 57.412 18.609 58.377 17.947 58.379 17.946 58.383 17.946 58.385 17.945 58.417 17.923 58.444 17.898 58.475 17.875 58.618 17.772 58.758 17.665 58.891 17.551 58.952 17.498 59.009 17.443 59.068 17.389 59.174 17.291 59.276 17.187 59.375 17.082 59.431 17.022 59.486 16.964 59.539 16.902 59.646 16.778 59.747 16.649 59.844 16.516 59.876 16.471 59.91 16.429 59.941 16.383 60.065 16.201 60.181 16.011 60.285 15.816 60.306 15.777 60.323 15.736 60.342 15.697 60.423 15.537 60.497 15.375 60.564 15.207 60.588 15.146 60.609 15.085 60.631 15.023 60.685 14.872 60.733 14.719 60.775 14.563 60.793 14.495 60.812 14.428 60.828 14.359 60.865 14.199 60.894 14.035 60.918 13.871 60.927 13.808 60.939 13.749 60.947 13.686 60.973 13.461 60.99 13.232 60.99 13 60.99 9.691 58.299 7 54.99 7zM9.01 8C11.767 8 14.01 10.243 14.01 13 14.01 13.315 13.974 13.621 13.918 13.92 13.899 14.023 13.867 14.124 13.842 14.225 13.793 14.419 13.735 14.609 13.664 14.793 13.622 14.901 13.576 15.005 13.527 15.109 13.445 15.283 13.354 15.451 13.254 15.613 13.197 15.706 13.141 15.8 13.078 15.889 13.051 15.926 13.018 15.957 12.99 15.994 12.988 14.652 12.296 13.402 11.188 12.67 11.376 12.319 11.49 11.924 11.49 11.5 11.49 10.122 10.368 9 8.99 9 7.612 9 6.49 10.122 6.49 11.5 6.49 11.593 6.496 11.683 6.506 11.775 6.542 12.1 6.639 12.405 6.785 12.678 5.694 13.403 5.01 14.628 4.992 15.949 4.776 15.659 4.601 15.345 4.453 15.018 4.399 14.899 4.348 14.779 4.305 14.656 4.267 14.55 4.231 14.446 4.201 14.338 4.131 14.084 4.071 13.825 4.041 13.555 4.021 13.373 4.01 13.187 4.01 13 4.01 10.243 6.253 8 9.01 8zM54.99 8C57.747 8 59.99 10.243 59.99 13 59.99 13.315 59.952 13.621 59.896 13.92 59.877 14.024 59.846 14.123 59.82 14.225 59.771 14.418 59.716 14.609 59.645 14.793 59.603 14.902 59.555 15.006 59.506 15.111 59.425 15.283 59.334 15.45 59.234 15.611 59.176 15.705 59.121 15.801 59.057 15.891 59.03 15.928 58.996 15.959 58.969 15.996 58.967 14.653 58.275 13.403 57.166 12.67 57.354 12.319 57.471 11.926 57.471 11.502 57.471 10.124 56.349 9.002 54.971 9.002 53.593 9.002 52.471 10.124 52.471 11.502 52.471 11.596 52.474 11.688 52.484 11.777 52.52 12.102 52.619 12.405 52.764 12.678 51.673 13.403 50.989 14.628 50.971 15.949 50.755 15.659 50.58 15.345 50.432 15.018 50.38 14.9 50.328 14.781 50.285 14.658 50.247 14.552 50.213 14.446 50.182 14.338 50.112 14.084 50.05 13.825 50.02 13.555 50 13.373 49.99 13.187 49.99 13 49.99 10.243 52.233 8 54.99 8zM30.434 9.447C30.863 9.79 31.401 10 31.99 10 32.414 10 32.808 9.884 33.158 9.697 33.183 9.684 33.206 9.67 33.23 9.656 33.324 9.602 33.416 9.545 33.502 9.479 33.517 9.468 33.534 9.459 33.549 9.447 34.435 9.988 34.99 10.957 34.99 12 34.99 12.402 34.891 12.8 34.717 13.191 33.935 13.697 33.009 14 32.01 14 30.984 14 30.032 13.679 29.234 13.146 29.116 12.867 29.037 12.599 29.008 12.33 28.996 12.222 28.99 12.112 28.99 12 28.99 10.958 29.548 9.988 30.434 9.447zM8.99 10C9.817 10 10.49 10.673 10.49 11.5 10.49 11.885 10.34 12.234 10.1 12.5L10.098 12.502C9.762 12.873 9.269 13.023 8.801 12.965 8.734 12.956 8.669 12.946 8.605 12.928 8.51 12.903 8.419 12.869 8.33 12.826 8.241 12.782 8.156 12.734 8.078 12.674 8.025 12.634 7.975 12.588 7.928 12.539 7.701 12.307 7.536 12.013 7.498 11.668 7.492 11.614 7.49 11.557 7.49 11.5 7.49 10.673 8.163 10 8.99 10zM54.971 10C55.798 10 56.471 10.673 56.471 11.5 56.47 11.885 56.318 12.234 56.078 12.5L56.076 12.502C55.74 12.873 55.247 13.023 54.779 12.965 54.713 12.956 54.649 12.947 54.586 12.93 54.49 12.905 54.396 12.869 54.307 12.826 54.219 12.782 54.136 12.734 54.059 12.674 54.006 12.634 53.955 12.589 53.908 12.541 53.681 12.309 53.517 12.01 53.479 11.664 53.473 11.61 53.471 11.556 53.471 11.5 53.471 10.673 54.144 10 54.971 10zM7.434 13.447C7.863 13.79 8.401 14 8.99 14 9.414 14 9.808 13.884 10.158 13.697 10.183 13.684 10.206 13.67 10.23 13.656 10.324 13.602 10.416 13.545 10.502 13.479 10.517 13.468 10.534 13.459 10.549 13.447 11.435 13.988 11.99 14.957 11.99 16 11.99 16.402 11.891 16.8 11.717 17.191 10.935 17.697 10.009 18 9.01 18 7.984 18 7.032 17.679 6.234 17.146 6.116 16.867 6.037 16.599 6.008 16.33 5.996 16.222 5.99 16.112 5.99 16 5.99 14.958 6.548 13.988 7.434 13.447zM53.412 13.447C53.841 13.79 54.38 14 54.969 14 55.394 14 55.788 13.883 56.139 13.695 56.163 13.682 56.188 13.67 56.211 13.656 56.305 13.602 56.394 13.545 56.48 13.479 56.495 13.468 56.512 13.459 56.527 13.447 57.413 13.988 57.969 14.957 57.969 16 57.969 16.402 57.869 16.801 57.695 17.191 56.913 17.698 55.988 18 54.99 18 53.963 18 53.013 17.679 52.215 17.146 52.097 16.868 52.016 16.6 51.986 16.332 51.974 16.223 51.969 16.113 51.969 16 51.969 14.958 52.526 13.988 53.412 13.447zM29.01 15.99C28.734 15.99 28.51 16.214 28.51 16.49L28.51 18.49C28.51 18.766 28.734 18.99 29.01 18.99 29.286 18.99 29.51 18.766 29.51 18.49L29.51 16.49C29.51 16.214 29.286 15.99 29.01 15.99zM35.01 15.99C34.734 15.99 34.51 16.214 34.51 16.49L34.51 18.49C34.51 18.766 34.734 18.99 35.01 18.99 35.286 18.99 35.51 18.766 35.51 18.49L35.51 16.49C35.51 16.214 35.286 15.99 35.01 15.99zM31.01 16.99C30.734 16.99 30.51 17.214 30.51 17.49L30.51 18.49C30.51 18.766 30.734 18.99 31.01 18.99 31.286 18.99 31.51 18.766 31.51 18.49L31.51 17.49C31.51 17.214 31.286 16.99 31.01 16.99zM33.01 16.99C32.734 16.99 32.51 17.214 32.51 17.49L32.51 18.49C32.51 18.766 32.734 18.99 33.01 18.99 33.286 18.99 33.51 18.766 33.51 18.49L33.51 17.49C33.51 17.214 33.286 16.99 33.01 16.99zM12.543 19.457C12.415 19.457 12.287 19.506 12.189 19.604 11.994 19.799 11.994 20.116 12.189 20.311L13.604 21.725C13.701 21.822 13.829 21.871 13.957 21.871 14.085 21.871 14.213 21.822 14.311 21.725 14.506 21.53 14.506 21.213 14.311 21.018L12.896 19.604C12.799 19.506 12.671 19.457 12.543 19.457zM51.043 19.457C50.915 19.457 50.787 19.506 50.689 19.604L49.275 21.018C49.08 21.213 49.08 21.53 49.275 21.725 49.373 21.823 49.501 21.871 49.629 21.871 49.757 21.871 49.884 21.822 49.982 21.725L51.396 20.311C51.591 20.115 51.592 19.799 51.396 19.604 51.299 19.506 51.171 19.457 51.043 19.457zM45.504 19.891C45.056 19.85 44.625 20.01 44.311 20.324L39.361 25.275C39.058 25.578 38.899 25.999 38.924 26.426 38.925 26.442 38.935 26.455 38.936 26.471 38.938 26.483 38.933 26.496 38.936 26.508 38.94 26.525 38.95 26.537 38.955 26.553 39.002 26.869 39.131 27.167 39.359 27.396L42.189 30.225C42.481 30.517 42.865 30.662 43.25 30.662 43.635 30.662 44.018 30.517 44.311 30.225L49.262 25.275C49.545 24.992 49.699 24.616 49.699 24.215 49.699 23.815 49.545 23.436 49.262 23.152L46.432 20.324C46.182 20.075 45.852 19.922 45.504 19.891zM18.082 19.895C17.732 19.925 17.404 20.077 17.154 20.326L14.324 23.156C13.74 23.741 13.74 24.693 14.324 25.277L19.275 30.225C19.558 30.508 19.935 30.664 20.336 30.664 20.736 30.664 21.112 30.508 21.396 30.225L24.225 27.396C24.453 27.168 24.583 26.871 24.631 26.555 24.637 26.539 24.646 26.525 24.65 26.508 24.653 26.496 24.648 26.485 24.65 26.473 24.651 26.457 24.661 26.442 24.662 26.426 24.687 25.998 24.528 25.578 24.225 25.277L19.275 20.326C18.961 20.011 18.524 19.858 18.082 19.895zM30.01 20.01C29.659 20.01 29.318 20.134 29.049 20.359 28.707 20.645 28.51 21.065 28.51 21.51L28.51 28.51C28.51 28.939 28.695 29.349 29.016 29.633 29.028 29.644 29.044 29.645 29.057 29.656 29.067 29.663 29.07 29.676 29.08 29.682 29.089 29.688 29.1 29.684 29.109 29.689 29.369 29.888 29.68 30.01 30.01 30.01L34.01 30.01C34.837 30.01 35.51 29.337 35.51 28.51L35.51 21.51C35.51 20.683 34.837 20.01 34.01 20.01L30.01 20.01zM10.422 20.164C10.294 20.164 10.166 20.213 10.068 20.311 9.873 20.506 9.873 20.823 10.068 21.018L12.189 23.141C12.287 23.239 12.417 23.285 12.545 23.285 12.673 23.285 12.8 23.238 12.898 23.141 13.093 22.946 13.093 22.629 12.898 22.434L10.775 20.311C10.677 20.213 10.55 20.164 10.422 20.164zM53.164 20.164C53.036 20.164 52.908 20.213 52.811 20.311L50.689 22.434C50.494 22.629 50.494 22.946 50.689 23.141 50.786 23.238 50.915 23.285 51.043 23.285 51.171 23.285 51.298 23.238 51.396 23.141L53.518 21.018C53.713 20.823 53.713 20.506 53.518 20.311 53.42 20.213 53.292 20.164 53.164 20.164zM30.23 21.01L34.01 21.01C34.286 21.011 34.51 21.234 34.51 21.51L34.51 28.51C34.51 28.786 34.286 29.01 34.01 29.01L30.096 29.01 31.885 26.178C32.374 25.404 32.374 24.403 31.885 23.627L30.23 21.01zM17.703 21.189L18.387 24.211C18.589 25.105 19.296 25.812 20.189 26.014L23.455 26.752 20.689 29.518C20.5 29.707 20.171 29.707 19.982 29.518L15.031 24.568C14.836 24.373 14.836 24.056 15.031 23.861L17.703 21.189zM45.881 21.189L48.553 23.861C48.647 23.956 48.699 24.081 48.699 24.215 48.699 24.349 48.647 24.473 48.553 24.568L43.604 29.52C43.409 29.715 43.091 29.714 42.896 29.52L40.129 26.752 43.395 26.014C44.289 25.812 44.996 25.104 45.197 24.211L45.881 21.189zM18.73 21.195L23.203 25.668 20.41 25.037C19.89 24.92 19.478 24.507 19.361 23.988L18.73 21.195zM44.854 21.195L44.223 23.988C44.106 24.507 43.696 24.92 43.176 25.037L40.383 25.668 44.854 21.195zM29.51 21.74L31.039 24.16C31.323 24.611 31.323 25.195 31.039 25.645L29.51 28.066 29.51 21.74zM32.012 32C29.255 32 27.012 34.243 27.012 37L18.512 37C17.134 37 16.012 38.122 16.012 39.5L16.012 56 14.512 56C14.236 56 14.012 56.224 14.012 56.5L14.012 57.5C14.012 59.43 15.582 61 17.512 61L46.512 61C48.442 61 50.012 59.43 50.012 57.5L50.012 56.5C50.012 56.224 49.788 56 49.512 56L48.012 56 48.012 39.5C48.012 38.122 46.89 37 45.512 37L37.012 37C37.012 34.243 34.769 32 32.012 32zM32.01 33C34.216 33 36.01 34.794 36.01 37 36.01 39.206 34.216 41 32.01 41 29.967 41 28.257 39.47 28.033 37.441 28.018 37.296 28.01 37.149 28.01 37 28.01 34.794 29.805 33 32.01 33zM32.01 34C30.356 34 29.01 35.346 29.01 37 29.01 37.111 29.015 37.221 29.027 37.33 29.055 37.586 29.272 37.775 29.525 37.775 29.543 37.775 29.56 37.775 29.578 37.773 29.853 37.744 30.053 37.497 30.023 37.223 30.015 37.149 30.01 37.075 30.01 37 30.01 35.897 30.907 35 32.01 35 32.286 35 32.51 34.776 32.51 34.5 32.51 34.224 32.286 34 32.01 34zM18.512 38L27.133 38C27.204 38.349 27.307 38.683 27.445 39L18.512 39C18.236 39 18.012 39.224 18.012 39.5L18.012 54.5C18.012 54.776 18.236 55 18.512 55L45.512 55C45.788 55 46.012 54.776 46.012 54.5L46.012 39.5C46.012 39.224 45.788 39 45.512 39L36.588 39C36.728 38.682 36.839 38.349 36.91 38L45.512 38C46.339 38 47.012 38.673 47.012 39.5L47.012 56 35.512 56 28.512 56 17.012 56 17.012 39.5C17.012 38.673 17.685 38 18.512 38zM35.986 39.998C35.987 39.998 35.988 40 35.99 40L45.012 40 45.012 54 19.012 54 19.012 40 28.016 40C28.633 40.822 29.496 41.429 30.492 41.746L30.508 43C30.234 43.002 30.012 43.223 30.012 43.498L30.012 49C30.012 50.103 30.909 51 32.012 51 33.115 51 34.012 50.103 34.012 49L34.012 43.5C34.012 43.224 33.788 43 33.512 43L33.508 43 33.492 41.75C34.497 41.435 35.364 40.82 35.986 39.998zM31.494 41.951C31.665 41.969 31.834 42 32.01 42 32.176 42 32.332 41.967 32.494 41.951L32.506 43 31.506 43 31.494 41.951zM31.01 44L33.01 44 33.01 49C33.01 49.551 32.561 50 32.01 50 31.459 50 31.01 49.551 31.01 49L31.01 44zM15.012 57L16.012 57 28.012 57 28.012 58.5C28.012 58.776 28.236 59 28.512 59L35.512 59C35.788 59 36.012 58.776 36.012 58.5L36.012 57 48.012 57 49.012 57 49.012 57.5C49.012 58.878 47.89 60 46.512 60L17.512 60C16.134 60 15.012 58.878 15.012 57.5L15.012 57zM29.012 57L35.012 57 35.012 58 29.012 58 29.012 57z" fill="#1c5fcc" stroke="none" data-fill-palette-color="accent"></path></svg></g></svg></g></svg></g><defs></defs></svg><rect width="395.52" height="56.581900129308536" fill="none" stroke="none" visibility="hidden"></rect></g></svg></g></svg>